<?xml version="1.0" standalone="no"?>
<svg xmlns="http://www.w3.org/2000/svg" xmlns:xlink="http://www.w3.org/1999/xlink" width="740pt" height="332pt" viewBox="0.00 0.00 740.15 332.00">
<g id="graph0" class="graph" transform="translate(4,328) scale(1)" data-name="G">

<polygon fill="white" stroke="transparent" points="-4,4 -4,-328 736.15,-328 736.15,4 -4,4" style=""/>
<!-- NutsNFT3 -->
<g id="node1" class="node" pointer-events="visible" data-name="NutsNFT3">

<ellipse fill="none" stroke="black" cx="200.62" cy="-306" rx="52.19" ry="18" style=""/>
<text text-anchor="middle" x="200.62" y="-301.8" font-family="Times,serif" font-size="14.00" style="">NutsNFT3</text>
</g>
<!-- ERC721 -->
<g id="node2" class="node" pointer-events="visible" data-name="ERC721">

<ellipse fill="none" stroke="black" cx="130.62" cy="-234" rx="44.1" ry="18" style=""/>
<text text-anchor="middle" x="130.62" y="-229.8" font-family="Times,serif" font-size="14.00" style="">ERC721</text>
</g>
<!-- NutsNFT3&#45;&gt;ERC721 -->
<g id="edge1" class="edge" data-name="NutsNFT3-&gt;ERC721">

<path fill="none" stroke="black" d="M184.38,-288.76C175.37,-279.75 164,-268.39 154.04,-258.43" style=""/>
<polygon fill="black" stroke="black" points="156.31,-255.74 146.76,-251.15 151.36,-260.69 156.31,-255.74" style=""/>
</g>
<!-- ReentrancyGuard -->
<g id="node3" class="node" pointer-events="visible" data-name="ReentrancyGuard">

<ellipse fill="none" stroke="black" cx="271.62" cy="-234" rx="79.27" ry="18" style=""/>
<text text-anchor="middle" x="271.62" y="-229.8" font-family="Times,serif" font-size="14.00" style="">ReentrancyGuard</text>
</g>
<!-- NutsNFT3&#45;&gt;ReentrancyGuard -->
<g id="edge2" class="edge" data-name="NutsNFT3-&gt;ReentrancyGuard">

<path fill="none" stroke="black" d="M217.08,-288.76C226.09,-279.88 237.43,-268.71 247.42,-258.85" style=""/>
<polygon fill="black" stroke="black" points="250.08,-261.15 254.75,-251.63 245.17,-256.16 250.08,-261.15" style=""/>
</g>
<!-- Context -->
<g id="node4" class="node" pointer-events="visible" data-name="Context">

<ellipse fill="none" stroke="black" cx="41.62" cy="-162" rx="41.73" ry="18" style=""/>
<text text-anchor="middle" x="41.62" y="-157.8" font-family="Times,serif" font-size="14.00" style="">Context</text>
</g>
<!-- ERC721&#45;&gt;Context -->
<g id="edge3" class="edge" data-name="ERC721-&gt;Context">

<path fill="none" stroke="black" d="M110.86,-217.46C98.48,-207.72 82.35,-195.04 68.77,-184.36" style=""/>
<polygon fill="black" stroke="black" points="70.73,-181.44 60.7,-178.01 66.4,-186.94 70.73,-181.44" style=""/>
</g>
<!-- ERC165 -->
<g id="node5" class="node" pointer-events="visible" data-name="ERC165">

<ellipse fill="none" stroke="black" cx="111.62" cy="-90" rx="44.1" ry="18" style=""/>
<text text-anchor="middle" x="111.62" y="-85.8" font-family="Times,serif" font-size="14.00" style="">ERC165</text>
</g>
<!-- ERC721&#45;&gt;ERC165 -->
<g id="edge4" class="edge" data-name="ERC721-&gt;ERC165">

<path fill="none" stroke="black" d="M128.32,-215.87C125.09,-191.67 119.14,-147.21 115.28,-118.39" style=""/>
<polygon fill="black" stroke="black" points="118.71,-117.64 113.92,-108.19 111.77,-118.57 118.71,-117.64" style=""/>
</g>
<!-- IERC721 -->
<g id="node6" class="node" pointer-events="visible" data-name="IERC721">

<ellipse fill="none" stroke="black" cx="221.62" cy="-90" rx="47.53" ry="18" style=""/>
<text text-anchor="middle" x="221.62" y="-85.8" font-family="Times,serif" font-size="14.00" style="">IERC721</text>
</g>
<!-- ERC721&#45;&gt;IERC721 -->
<g id="edge5" class="edge" data-name="ERC721-&gt;IERC721">

<path fill="none" stroke="black" d="M135.72,-215.96C141.79,-197.3 153.09,-166.97 168.62,-144 176.02,-133.05 185.89,-122.45 195.1,-113.64" style=""/>
<polygon fill="black" stroke="black" points="197.65,-116.05 202.62,-106.69 192.9,-110.91 197.65,-116.05" style=""/>
</g>
<!-- IERC721Metadata -->
<g id="node7" class="node" pointer-events="visible" data-name="IERC721Metadata">

<ellipse fill="none" stroke="black" cx="260.62" cy="-162" rx="83.39" ry="18" style=""/>
<text text-anchor="middle" x="260.62" y="-157.8" font-family="Times,serif" font-size="14.00" style="">IERC721Metadata</text>
</g>
<!-- ERC721&#45;&gt;IERC721Metadata -->
<g id="edge6" class="edge" data-name="ERC721-&gt;IERC721Metadata">

<path fill="none" stroke="black" d="M156.3,-219.17C174.99,-209.1 200.63,-195.3 221.82,-183.89" style=""/>
<polygon fill="black" stroke="black" points="223.75,-186.83 230.89,-179.01 220.43,-180.67 223.75,-186.83" style=""/>
</g>
<!-- IERC165 -->
<g id="node8" class="node" pointer-events="visible" data-name="IERC165">

<ellipse fill="none" stroke="black" cx="166.62" cy="-18" rx="47.53" ry="18" style=""/>
<text text-anchor="middle" x="166.62" y="-13.8" font-family="Times,serif" font-size="14.00" style="">IERC165</text>
</g>
<!-- ERC165&#45;&gt;IERC165 -->
<g id="edge9" class="edge" data-name="ERC165-&gt;IERC165">

<path fill="none" stroke="black" d="M124.65,-72.41C131.43,-63.78 139.85,-53.06 147.37,-43.5" style=""/>
<polygon fill="black" stroke="black" points="150.25,-45.5 153.68,-35.47 144.75,-41.17 150.25,-45.5" style=""/>
</g>
<!-- IERC721&#45;&gt;IERC165 -->
<g id="edge7" class="edge" data-name="IERC721-&gt;IERC165">

<path fill="none" stroke="black" d="M208.58,-72.41C201.8,-63.78 193.38,-53.06 185.86,-43.5" style=""/>
<polygon fill="black" stroke="black" points="188.49,-41.17 179.56,-35.47 182.98,-45.5 188.49,-41.17" style=""/>
</g>
<!-- IERC721Metadata&#45;&gt;IERC721 -->
<g id="edge8" class="edge" data-name="IERC721Metadata-&gt;IERC721">

<path fill="none" stroke="black" d="M251.18,-144.05C246.58,-135.8 240.95,-125.7 235.84,-116.54" style=""/>
<polygon fill="black" stroke="black" points="238.89,-114.82 230.97,-107.79 232.78,-118.23 238.89,-114.82" style=""/>
</g>
<!-- IERC721Receiver -->
<g id="node9" class="node" pointer-events="visible" data-name="IERC721Receiver">

<ellipse fill="none" stroke="black" cx="352.62" cy="-306" rx="81.66" ry="18" style=""/>
<text text-anchor="middle" x="352.62" y="-301.8" font-family="Times,serif" font-size="14.00" style="">IERC721Receiver</text>
</g>
<!-- Address -->
<g id="node10" class="node" pointer-events="visible" data-name="Address">

<ellipse fill="none" stroke="black" cx="495.62" cy="-306" rx="42.86" ry="18" style=""/>
<text text-anchor="middle" x="495.62" y="-301.8" font-family="Times,serif" font-size="14.00" style="">Address</text>
</g>
<!-- Strings -->
<g id="node11" class="node" pointer-events="visible" data-name="Strings">

<ellipse fill="none" stroke="black" cx="594.62" cy="-306" rx="38.3" ry="18" style=""/>
<text text-anchor="middle" x="594.62" y="-301.8" font-family="Times,serif" font-size="14.00" style="">Strings</text>
</g>
<!-- console -->
<g id="node12" class="node" pointer-events="visible" data-name="console">

<ellipse fill="none" stroke="black" cx="691.62" cy="-306" rx="40.57" ry="18" style=""/>
<text text-anchor="middle" x="691.62" y="-301.8" font-family="Times,serif" font-size="14.00" style="">console</text>
</g>
</g>
</svg>